<svg xmlns="http://www.w3.org/2000/svg" viewBox="0 0 58 55" width="58" height="55">
	<defs>
		<radialGradient id="grd1" gradientUnits="userSpaceOnUse"  cx="9.227" cy="9.138" r="47.776">
			<stop offset="0" stop-color="#00aeff"  />
			<stop offset="0.131" stop-color="#00a5f7"  />
			<stop offset="0.345" stop-color="#008de0"  />
			<stop offset="0.616" stop-color="#0065ba"  />
			<stop offset="0.928" stop-color="#002f87"  />
			<stop offset="1" stop-color="#00217a"  />
		</radialGradient>
		<radialGradient id="grd2" gradientUnits="userSpaceOnUse"  cx="7.729" cy="6.801" r="8.286">
			<stop offset="0" stop-color="#ffffff"  />
			<stop offset="0.679" stop-color="#7a7a7a"  />
			<stop offset="1" stop-color="#404040"  />
		</radialGradient>
	</defs>
	<style>
		tspan { white-space:pre }
		.shp0 { fill: #ffffff } 
		.shp1 { fill: url(#grd1) } 
		.shp2 { opacity: 0.4;fill: #000000 } 
		.shp3 { fill: url(#grd2) } 
	</style>
	<g id="Symbol_2_">
		<path id="path9" class="shp0" d="M57.1 9.4L57 8.3L56 7.6C51.8 4.7 43.8 1.3 29.5 1.3C24.1 1.3 19.2 1.8 14.9 2.8C13.4 1.5 11.4 0.7 9.3 0.7C4.6 0.7 0.7 4.5 0.7 9.3C0.7 10.8 1.1 12.2 1.8 13.5C2 20.9 4.3 28.6 8.8 36.4C16.2 48.9 24.1 52.6 27.9 54.3C28.2 54.4 28.4 54.5 28.6 54.6L29.6 55.1L30.6 54.6C30.8 54.5 31.1 54.4 31.3 54.3C35.2 52.6 43 48.9 50.2 36.4C58.1 22.7 57.4 12.7 57.1 9.4L57.1 9.4Z" />
		<path id="path24" fill-rule="evenodd" class="shp1" d="M54.7 9.6C55 12.7 55.4 19.6 51.3 29.2C51.3 29.1 51.2 28.9 51.2 28.8C50.6 26.5 47.8 23.8 43.7 23C42.5 22.8 40.9 23.1 40 23.9L39.2 23.7L39.2 23.6C39.2 23.6 40.7 22.6 41.3 22.4C41.3 22.4 41.6 22.3 41.8 22.2C41.8 22 41.7 21.8 40.9 21.4C40.1 21 39 21.1 39 21.1L39.8 20.6L39.8 20.5L38.1 18.8L38.1 18.5L37.4 17.8C37.4 17.8 37.5 17.5 37.2 17.3C36.9 17 36.6 16.8 36.5 16.7C36.4 16.6 36.1 16.5 36.1 16.5C36.1 16.5 36.3 16.1 36.3 15.9C36.3 15.9 36.3 15.8 36.2 15.8C36.1 15.8 35.1 15.1 34.8 15C34.5 14.9 33.6 14.7 33.5 14.7C33.4 14.7 33.3 14.8 33.3 14.9C33.3 15 33.2 15.5 33.2 15.5L34 15.8L33.9 16.1L33.4 16C33.1 15.8 31.6 15.2 30 15C28.4 14.8 26.6 14.7 26.4 14.7C26.2 14.7 26 14.8 25 15.1C24 15.4 23.3 15.7 22.9 15.7C22.5 15.8 21.1 15.8 21.1 15.8C21.1 15.8 21.1 15.7 20.5 15.4C19.9 15.1 18.5 14.4 18 14.3C17.9 14.3 17.9 14.4 17.9 14.4C17.9 14.4 17.6 14.4 17.6 14.9C17.5 14.8 17.3 14.8 17.3 14.8L17.1 15.3C16.6 15.2 16.2 15.1 15.9 15C17.2 13.5 18 11.5 18 9.3C18 7.7 17.6 6.2 16.8 4.9C20.2 4.2 24.5 3.7 29.6 3.7C44.3 3.7 51.7 7.5 54.7 9.6ZM46.2 31.7C48.2 31.7 49.4 33.1 48.1 35.2C44.9 40.7 41.7 44.4 38.7 46.9C39.5 41.3 28.1 32.2 16.2 30.3C10.8 29.4 7.2 28.1 6.1 24.1C5.3 21.2 4.7 18.6 4.5 16.4C5.9 17.3 7.6 17.9 9.4 17.9C11 17.9 12.5 17.5 13.8 16.6L13.8 16.9L13.9 16.9C13.9 16.9 13.9 17.3 14.1 18C14 18.1 13.7 19 13.9 20C14.2 21 15.3 22.1 16.6 22.5C17.9 22.9 19.1 21.9 19.1 21.9L19.5 22.4L20.5 22.6C20.5 22.6 19.9 24.1 20.5 25.5C21.1 26.9 23.1 27.9 24 27.9C24.9 27.9 26.1 27.2 26.7 26.7C27.3 26.2 27.8 25.2 27.9 24.8C28.8 25.5 29.8 25.8 30.6 25.4L31 25.5L33.5 26.9L35.5 27.6C35.5 27.6 35.5 28.7 36 29.3C36.5 29.9 37.8 30.5 38.2 30.5C38.6 30.5 39.6 30.5 40.5 29.3L40.5 29.2C42 31 44.1 31.7 46.2 31.7ZM34.5 17.6C34.5 17.6 35.8 17.9 36.6 19.6L34.6 18.9L34 17.8L34.5 17.6ZM28.8 19.7C28.8 19.7 32 19.3 35.8 20.1C33.1 20 31 20.4 30 21.4C30 21.4 29.4 20.4 28.8 19.7ZM25.1 18.2L25.1 17.4C25.1 17.4 26.7 17.8 27.7 18.5C26.2 18.2 25.1 18.2 25.1 18.2ZM34.3 23.7L34.5 23.9L35.2 24.2L33.9 25.6L32.6 25.2L34.3 23.7ZM23 15.8C23 15.8 25.6 14.9 25.7 14.9C25.7 14.9 27.1 15.3 28.6 15.9C28.6 15.9 26.9 16.9 26.8 16.9C26.7 16.9 26.4 17.1 25.9 16.9C25.3 16.7 23.9 16.2 23.8 16.2C23.7 16.2 23 15.8 23 15.8ZM33.2 16.7C33.2 16.7 33.5 17.7 33.7 18.1C33.9 18.6 34 19 33.9 19L31.3 19C30.3 19.1 28.7 19.2 28.7 19.2C28.7 19.2 28.4 19 28.3 19L27.5 18C27.5 18 27.2 17.6 27.3 17.5C27.4 17.3 27.5 17.2 28 16.9C28.5 16.6 29.1 16.2 29.1 16.2C29.1 16.2 29.2 16.1 29.4 16.1C29.6 16.1 30.6 16.2 31.7 16.3C32.9 16.5 33.1 16.5 33.2 16.7ZM23.7 17.8L23.5 17.9L23.4 17.9L23.5 17.2L23.69 17.14C23.64 17.19 23.6 17.26 23.6 17.3C23.6 17.5 23.6 17.6 23.7 17.8C23.7 17.8 24 17.8 24 17.4C24.04 17.26 24.03 17.16 24.01 17.11C24.08 17.13 24.3 17.24 24.3 17.5C24.3 17.7 24.2 17.9 24 17.9C23.8 17.8 23.7 17.8 23.7 17.8ZM24 17.1L23.8 17.1L23.69 17.14C23.76 17.06 23.84 17 23.9 17C23.9 17 23.98 17 24.01 17.11C24.01 17.1 24 17.1 24 17.1ZM40.9 26.9L39.8 26.9L39.8 26.8L40.6 25.7C40.6 25.7 41.1 26.2 40.9 26.9ZM20.6 20.5C20.6 20.5 21.2 20.2 21.4 20C21.6 19.7 21.6 19.3 21.4 19C21.7 18.9 23 18.7 24.4 19C24.3 18.9 24.2 18.7 24.2 18.7C24.1 18.6 23.6 18.5 21.9 18.1C21.9 18.1 21.9 18 22.5 18.1C23.1 18.2 24.2 18.3 24.5 18.5C24.8 18.7 25 18.9 25 18.9L25.2 19.3C25.4 19.6 25.5 19.7 25.5 19.7C25.5 19.7 25.7 19.9 26 20C26.3 20 26.8 20.1 26.8 20.1C26.8 20.1 28.7 21.9 29.5 23.9L30.5 24.6L28.3 23.9C28.3 23.9 28.6 22.3 27.5 21.1C26.3 19.9 24.8 19.7 23.9 19.7C23 19.8 21.7 20.7 21.3 21.3C20.9 21.3 19.9 21.2 19.9 21.2L19.7 21.6L19.6 21.7L19.5 21.7L18.9 21.9C18.9 21.9 18.8 22 18.4 21.8C18.3 21.7 18.2 21.7 18 21.6C17.8 21.7 17.3 21.7 16.9 21.5C16.4 21.3 16.2 20.9 16.1 20.7L16 20.7L16 19.9L17.4 21L17.5 21L17.9 20.8C17.9 20.8 18 20.7 18 20.6C18 20.5 18.1 20.3 18.1 20.3L18.4 20C18.3 19.8 17.8 19 17.7 18.9L17.9 18.1C17.9 18.1 18.8 19.2 19 19.6L19.6 19.4C19.59 19.43 19.59 19.45 19.59 19.47C19.55 19.69 19.49 20.32 19.9 20.4L20.4 20.5L20.6 20.5ZM19.6 19.4C19.65 19.02 19.88 18.65 20.1 18.5C20.4 18.3 20.7 18.7 20.7 18.7C20.7 18.7 20.4 18.4 20.1 18.8C19.7 19.3 19.6 20.1 20.1 20.3C19.8 20.3 19.7 20.3 19.6 19.8C19.58 19.69 19.58 19.58 19.59 19.47C19.59 19.43 19.6 19.4 19.6 19.4L19.6 19.4ZM39.7 27.6L40.9 27.5C40.9 27.5 40.8 27.9 40.5 28.3C40.2 28.7 39.9 29 39.9 29L39.6 27.7L39.7 27.6ZM15.5 18.6C15.5 18.6 15.2 18.5 15.3 18.3C15.3 18.1 15.4 16.7 15.4 16.7C15.4 16.7 15.6 15.9 16.1 15.3C16.3 15.4 16.6 15.5 17 15.6L17 15.7L18.2 16C18.22 16 18.27 16 18.34 15.99L18.4 16C18.4 16 16.9 16.3 16.7 16.3C16.7 16.4 16.6 16.4 16.6 16.5L16.5 16.5L16.5 16.9L16.4 17L16.4 17.1C16.6 17.2 17.2 17.6 17.4 17.7L17.6 17.7L17.7 17.8C17.7 17.8 17.3 17.7 17.2 17.9C17.1 18.1 17 18.8 17 18.8C17 18.8 17 19.1 17.6 19.1L17.6 19.2L17.5 19.3L17.3 19.3L17.1 19.1L17 18.9L16.1 18.4L16.1 18.8L16.2 18.8L16.2 19.4L16.1 19.4L16.1 19L16 19.7L15.4 19.7L15.5 18.6ZM39 26.5C39 26.5 39.7 25.6 40.1 25.6L40.1 25.7L39.3 26.7L39.2 26.8L39 26.5ZM36.6 24.7C36.6 24.7 35.8 25.6 35.6 26.4L34.6 26.1L36 24.5L36.6 24.7ZM38.8 27.4L38.8 27.6L38.3 28.7C38.3 28.7 38.2 28 38.7 27C38.8 27.2 38.9 27.4 38.8 27.4ZM38.2 20.5L39 20.6L38.7 21.2C36.7 21.2 35.4 22.2 35.4 22.2L35.4 22.5C35.4 22.52 35.41 22.54 35.43 22.56C35.36 22.53 35.3 22.5 35.3 22.5C35.3 22.4 35.3 22.1 35.4 22C35.6 21.8 36.3 21.5 36.7 21.3C37.1 21.2 37.8 21.1 37.9 21C38 20.9 38.2 20.5 38.2 20.5ZM35.6 22.6L35.56 22.64C35.51 22.62 35.46 22.59 35.43 22.56C35.49 22.58 35.55 22.6 35.6 22.6ZM35.56 22.64C35.63 22.68 35.7 22.7 35.7 22.7C36.2 22.9 37.9 23.6 38.3 23.8C38.3 23.8 37.6 23.9 37.1 24.3L34.9 23.6L34.7 23.4L35.56 22.64ZM38.5 29.3L38.4 29.2L39 28.1L39.1 28.1L39.5 29.3C39.5 29.3 39 29.5 38.5 29.3ZM24.4 17.9C24.5 17.9 24.7 17.8 24.6 17.7C24.7 17.4 24.5 17.3 24.5 17.3C24.5 17.2 24.4 17.2 24.4 17.3L24.3 17.3C24.3 17.3 24.3 17.2 24.2 17.1L24.6 17.2L24.9 17.4L24.9 17.8C24.9 18 24.7 18 24.7 18L24.4 17.9ZM24.2 24.1L24.2 24.3L23.3 25.6C23.3 25.6 22.8 24.7 23.5 23.4L24.2 24.1ZM18.34 15.99L17 15.7L17.1 15.4L19 15.9C19 15.9 18.58 15.96 18.34 15.99ZM17.7 15.4C17.7 15 17.8 14.7 17.8 14.7C17.8 14.7 20 15.4 20.5 15.8C20.2 15.8 19.6 15.9 19.6 15.9C19.6 15.9 19.3 15.6 17.7 15.4ZM13 33.3C23.9 33.7 35.4 39.6 37.5 44.8C37.9 45.9 38.1 47.6 36.4 48.7C33.5 50.7 31.1 51.8 29.6 52.5C26.3 50.9 18.5 47.9 11.1 35.2C10.2 33.8 11.7 33.3 13 33.3ZM29.7 21.7L29.1 21.8L28.8 21.7C28.8 21.7 27.9 20.6 27.3 20.2C27.3 20.2 28.6 20.3 29.7 21.7ZM49.2 30.4C47.7 28.9 43.8 30.4 41 28.5C41.5 27.6 41.7 26.6 41.6 25.9C41.5 25 41.2 24.8 40.6 24.4C40.5 24.3 40.4 24.3 40.3 24.2C43.3 22.8 48.9 26.6 49.2 30.4ZM17.3 20.1L17.1 20.2L17.1 19.4L17.3 19.3L17.3 20.1ZM23.5 26.1L24.5 24.9L24.7 24.9L25.3 26.4C25.3 26.4 24.2 26.7 23.5 26.1ZM14.4 17.9C14.4 17.9 14.2 17.9 14.2 17.6C14.2 17.4 14.3 16.1 14.3 16.1C14.3 16.1 14.5 15.3 15 14.7L15.3 14.7C15.3 14.7 14.8 15.4 14.6 16.2L15.1 16.5L15 17.7L14.9 17.8L14.9 18L15 18.1L14.9 18.6L14.8 18.8L14.9 18.8L14.9 18.9L15 18.9L15 19L14.3 19L14.4 17.9ZM25.4 24.6L25.5 24.5L27.1 24.4C27.1 24.4 26.9 25.5 25.9 26.2L25.4 24.6ZM26.3 22.1C26.3 22.1 27.2 22.6 27.2 23.7L25.6 23.6L25.5 23.5L26.3 22.1ZM16.3 19.6L16.2 19.6L16.3 19L16.3 19.6ZM25.8 21.9L24.9 23.3L24.7 23.4L23.9 22.8C23.9 22.8 24.7 21.8 25.8 21.9ZM16.5 19.7L16.4 19.7L16.4 19L16.5 19.1L16.5 19.7ZM16.8 20L16.7 20L16.8 19.3L16.8 20ZM17 20.1L16.9 20.1L17 19.4L17 20.1ZM16.6 19.9L16.5 19.9L16.6 19.2L16.6 19.9Z" />
		<path id="path26" class="shp2" d="M54.7 9.6C55 13.3 55.5 22.4 48.1 35.2C40.8 47.9 32.9 50.9 29.6 52.5L29.6 50.6C35.7 47.3 41 42 45.2 33.6C50.1 23.9 50.7 16 50.3 12L54.7 9.6L54.7 9.6Z" />
		<path id="path33" class="shp2" d="M54.7 9.6C51.7 7.5 44.3 3.7 29.6 3.7C24.5 3.7 20.2 4.2 16.8 4.9C17.5 6 17.9 7.3 18 8.7C21.8 8 25.9 7.6 30.3 7.7C39.7 7.8 47.3 9.9 50.4 12L54.7 9.6" />
		<path id="circle42" class="shp3" d="M9.4 15.5C5.97 15.5 3.2 12.73 3.2 9.3C3.2 5.87 5.97 3.1 9.4 3.1C12.83 3.1 15.6 5.87 15.6 9.3C15.6 12.73 12.83 15.5 9.4 15.5Z" />
	</g>
</svg>